<mxfile host="app.diagrams.net" modified="2021-08-15T07:08:19.046Z" agent="5.0 (Macintosh; Intel Mac OS X 10_15_7) AppleWebKit/537.36 (KHTML, like Gecko) Chrome/92.0.4515.131 Safari/537.36" etag="sjv00aEVJuuIc6nb9AUa" version="14.9.6" type="github" pages="2">
  <diagram id="u83BWcFoSiqOsLJ_eye8" name="Page-1">
    <mxGraphModel dx="1119" dy="1003" grid="1" gridSize="10" guides="1" tooltips="1" connect="1" arrows="1" fold="1" page="1" pageScale="1" pageWidth="827" pageHeight="1169" math="0" shadow="0">
      <root>
        <mxCell id="0" />
        <mxCell id="1" parent="0" />
        <mxCell id="Qdy37N5gB0tk9F52WcXk-3" value="" style="edgeStyle=orthogonalEdgeStyle;rounded=0;orthogonalLoop=1;jettySize=auto;html=1;fillColor=#1ba1e2;strokeColor=#006EAF;" parent="1" source="Qdy37N5gB0tk9F52WcXk-1" target="Qdy37N5gB0tk9F52WcXk-2" edge="1">
          <mxGeometry relative="1" as="geometry" />
        </mxCell>
        <mxCell id="Qdy37N5gB0tk9F52WcXk-1" value="Start" style="strokeWidth=2;html=1;shape=mxgraph.flowchart.terminator;whiteSpace=wrap;fillColor=#1ba1e2;strokeColor=#006EAF;fontColor=#ffffff;" parent="1" vertex="1">
          <mxGeometry x="40" y="20" width="80" height="40" as="geometry" />
        </mxCell>
        <mxCell id="Qdy37N5gB0tk9F52WcXk-6" value="" style="edgeStyle=orthogonalEdgeStyle;rounded=0;orthogonalLoop=1;jettySize=auto;html=1;fillColor=#1ba1e2;strokeColor=#006EAF;" parent="1" source="Qdy37N5gB0tk9F52WcXk-2" target="Qdy37N5gB0tk9F52WcXk-5" edge="1">
          <mxGeometry relative="1" as="geometry" />
        </mxCell>
        <mxCell id="Qdy37N5gB0tk9F52WcXk-2" value="&lt;font style=&quot;font-size: 11px&quot;&gt;o_gpa, n_gpa,&lt;br&gt;n_gps&lt;/font&gt;" style="rounded=1;whiteSpace=wrap;html=1;absoluteArcSize=1;arcSize=14;strokeWidth=2;fillColor=#1ba1e2;strokeColor=#006EAF;fontColor=#ffffff;" parent="1" vertex="1">
          <mxGeometry x="40" y="100" width="80" height="40" as="geometry" />
        </mxCell>
        <mxCell id="Qdy37N5gB0tk9F52WcXk-9" value="" style="edgeStyle=orthogonalEdgeStyle;rounded=0;orthogonalLoop=1;jettySize=auto;html=1;fillColor=#1ba1e2;strokeColor=#006EAF;" parent="1" source="Qdy37N5gB0tk9F52WcXk-5" target="Qdy37N5gB0tk9F52WcXk-8" edge="1">
          <mxGeometry relative="1" as="geometry" />
        </mxCell>
        <mxCell id="Qdy37N5gB0tk9F52WcXk-5" value="o_gpa" style="shape=parallelogram;html=1;strokeWidth=2;perimeter=parallelogramPerimeter;whiteSpace=wrap;rounded=1;arcSize=12;size=0.23;fillColor=#1ba1e2;strokeColor=#006EAF;fontColor=#ffffff;" parent="1" vertex="1">
          <mxGeometry x="40" y="180" width="80" height="40" as="geometry" />
        </mxCell>
        <mxCell id="Qdy37N5gB0tk9F52WcXk-11" value="" style="edgeStyle=orthogonalEdgeStyle;rounded=0;orthogonalLoop=1;jettySize=auto;html=1;fillColor=#1ba1e2;strokeColor=#006EAF;" parent="1" source="Qdy37N5gB0tk9F52WcXk-8" target="Qdy37N5gB0tk9F52WcXk-10" edge="1">
          <mxGeometry relative="1" as="geometry" />
        </mxCell>
        <mxCell id="Qdy37N5gB0tk9F52WcXk-15" value="" style="edgeStyle=orthogonalEdgeStyle;rounded=0;orthogonalLoop=1;jettySize=auto;html=1;fillColor=#1ba1e2;strokeColor=#006EAF;" parent="1" source="Qdy37N5gB0tk9F52WcXk-8" target="Qdy37N5gB0tk9F52WcXk-14" edge="1">
          <mxGeometry relative="1" as="geometry" />
        </mxCell>
        <mxCell id="Qdy37N5gB0tk9F52WcXk-8" value="0 &amp;lt; o_gpa &amp;lt; 1.00" style="strokeWidth=2;html=1;shape=mxgraph.flowchart.decision;whiteSpace=wrap;fillColor=#1ba1e2;strokeColor=#006EAF;fontColor=#ffffff;" parent="1" vertex="1">
          <mxGeometry x="20" y="260" width="120" height="50" as="geometry" />
        </mxCell>
        <mxCell id="Qdy37N5gB0tk9F52WcXk-13" value="" style="edgeStyle=orthogonalEdgeStyle;rounded=0;orthogonalLoop=1;jettySize=auto;html=1;fillColor=#1ba1e2;strokeColor=#006EAF;" parent="1" source="Qdy37N5gB0tk9F52WcXk-10" target="Qdy37N5gB0tk9F52WcXk-12" edge="1">
          <mxGeometry relative="1" as="geometry" />
        </mxCell>
        <mxCell id="Qdy37N5gB0tk9F52WcXk-17" value="" style="edgeStyle=orthogonalEdgeStyle;rounded=0;orthogonalLoop=1;jettySize=auto;html=1;fillColor=#1ba1e2;strokeColor=#006EAF;" parent="1" source="Qdy37N5gB0tk9F52WcXk-10" target="Qdy37N5gB0tk9F52WcXk-16" edge="1">
          <mxGeometry relative="1" as="geometry" />
        </mxCell>
        <mxCell id="Qdy37N5gB0tk9F52WcXk-10" value="o_gpa &amp;lt; 2.00" style="strokeWidth=2;html=1;shape=mxgraph.flowchart.decision;whiteSpace=wrap;fillColor=#1ba1e2;strokeColor=#006EAF;fontColor=#ffffff;" parent="1" vertex="1">
          <mxGeometry x="20" y="340" width="120" height="50" as="geometry" />
        </mxCell>
        <mxCell id="Qdy37N5gB0tk9F52WcXk-19" value="" style="edgeStyle=orthogonalEdgeStyle;rounded=0;orthogonalLoop=1;jettySize=auto;html=1;fillColor=#1ba1e2;strokeColor=#006EAF;" parent="1" source="Qdy37N5gB0tk9F52WcXk-12" target="Qdy37N5gB0tk9F52WcXk-18" edge="1">
          <mxGeometry relative="1" as="geometry" />
        </mxCell>
        <mxCell id="Qdy37N5gB0tk9F52WcXk-12" value="o_gpa &amp;gt;= 2.00" style="strokeWidth=2;html=1;shape=mxgraph.flowchart.decision;whiteSpace=wrap;fillColor=#1ba1e2;strokeColor=#006EAF;fontColor=#ffffff;" parent="1" vertex="1">
          <mxGeometry x="20" y="660" width="120" height="50" as="geometry" />
        </mxCell>
        <mxCell id="Qdy37N5gB0tk9F52WcXk-35" style="edgeStyle=orthogonalEdgeStyle;rounded=0;orthogonalLoop=1;jettySize=auto;html=1;entryX=0;entryY=0.5;entryDx=0;entryDy=0;entryPerimeter=0;fillColor=#1ba1e2;strokeColor=#006EAF;" parent="1" source="Qdy37N5gB0tk9F52WcXk-14" target="Qdy37N5gB0tk9F52WcXk-33" edge="1">
          <mxGeometry relative="1" as="geometry" />
        </mxCell>
        <mxCell id="Qdy37N5gB0tk9F52WcXk-14" value="Retired" style="strokeWidth=2;html=1;shape=mxgraph.flowchart.display;whiteSpace=wrap;fillColor=#1ba1e2;strokeColor=#006EAF;fontColor=#ffffff;" parent="1" vertex="1">
          <mxGeometry x="180" y="260" width="90" height="50" as="geometry" />
        </mxCell>
        <mxCell id="Qdy37N5gB0tk9F52WcXk-23" value="" style="edgeStyle=orthogonalEdgeStyle;rounded=0;orthogonalLoop=1;jettySize=auto;html=1;fillColor=#1ba1e2;strokeColor=#006EAF;" parent="1" source="Qdy37N5gB0tk9F52WcXk-16" target="Qdy37N5gB0tk9F52WcXk-22" edge="1">
          <mxGeometry relative="1" as="geometry" />
        </mxCell>
        <mxCell id="Qdy37N5gB0tk9F52WcXk-16" value="Probation" style="strokeWidth=2;html=1;shape=mxgraph.flowchart.display;whiteSpace=wrap;fillColor=#1ba1e2;strokeColor=#006EAF;fontColor=#ffffff;" parent="1" vertex="1">
          <mxGeometry x="180" y="340" width="90" height="50" as="geometry" />
        </mxCell>
        <mxCell id="Qdy37N5gB0tk9F52WcXk-60" value="" style="edgeStyle=orthogonalEdgeStyle;rounded=0;orthogonalLoop=1;jettySize=auto;html=1;fillColor=#1ba1e2;strokeColor=#006EAF;" parent="1" source="Qdy37N5gB0tk9F52WcXk-18" target="Qdy37N5gB0tk9F52WcXk-59" edge="1">
          <mxGeometry relative="1" as="geometry" />
        </mxCell>
        <mxCell id="Qdy37N5gB0tk9F52WcXk-18" value="Normal" style="strokeWidth=2;html=1;shape=mxgraph.flowchart.display;whiteSpace=wrap;fillColor=#1ba1e2;strokeColor=#006EAF;fontColor=#ffffff;" parent="1" vertex="1">
          <mxGeometry x="35" y="810" width="90" height="50" as="geometry" />
        </mxCell>
        <mxCell id="Qdy37N5gB0tk9F52WcXk-25" value="" style="edgeStyle=orthogonalEdgeStyle;rounded=0;orthogonalLoop=1;jettySize=auto;html=1;fillColor=#1ba1e2;strokeColor=#006EAF;" parent="1" source="Qdy37N5gB0tk9F52WcXk-22" target="Qdy37N5gB0tk9F52WcXk-24" edge="1">
          <mxGeometry relative="1" as="geometry" />
        </mxCell>
        <mxCell id="Qdy37N5gB0tk9F52WcXk-22" value="n_gpa,&lt;br&gt;n_gps" style="shape=parallelogram;html=1;strokeWidth=2;perimeter=parallelogramPerimeter;whiteSpace=wrap;rounded=1;arcSize=12;size=0.23;fillColor=#1ba1e2;strokeColor=#006EAF;fontColor=#ffffff;" parent="1" vertex="1">
          <mxGeometry x="320" y="345" width="80" height="40" as="geometry" />
        </mxCell>
        <mxCell id="Qdy37N5gB0tk9F52WcXk-28" value="" style="edgeStyle=orthogonalEdgeStyle;rounded=0;orthogonalLoop=1;jettySize=auto;html=1;fillColor=#1ba1e2;strokeColor=#006EAF;" parent="1" source="Qdy37N5gB0tk9F52WcXk-24" target="Qdy37N5gB0tk9F52WcXk-27" edge="1">
          <mxGeometry relative="1" as="geometry" />
        </mxCell>
        <mxCell id="Qdy37N5gB0tk9F52WcXk-40" value="" style="edgeStyle=orthogonalEdgeStyle;rounded=0;orthogonalLoop=1;jettySize=auto;html=1;fillColor=#1ba1e2;strokeColor=#006EAF;" parent="1" source="Qdy37N5gB0tk9F52WcXk-24" target="Qdy37N5gB0tk9F52WcXk-39" edge="1">
          <mxGeometry relative="1" as="geometry" />
        </mxCell>
        <mxCell id="Qdy37N5gB0tk9F52WcXk-24" value="n_gpa &amp;lt; 1.00" style="strokeWidth=2;html=1;shape=mxgraph.flowchart.decision;whiteSpace=wrap;fillColor=#1ba1e2;strokeColor=#006EAF;fontColor=#ffffff;" parent="1" vertex="1">
          <mxGeometry x="300" y="450" width="120" height="50" as="geometry" />
        </mxCell>
        <mxCell id="Qdy37N5gB0tk9F52WcXk-31" value="" style="edgeStyle=orthogonalEdgeStyle;rounded=0;orthogonalLoop=1;jettySize=auto;html=1;fillColor=#1ba1e2;strokeColor=#006EAF;" parent="1" source="Qdy37N5gB0tk9F52WcXk-27" target="Qdy37N5gB0tk9F52WcXk-30" edge="1">
          <mxGeometry relative="1" as="geometry" />
        </mxCell>
        <mxCell id="Qdy37N5gB0tk9F52WcXk-27" value="Retired" style="strokeWidth=2;html=1;shape=mxgraph.flowchart.display;whiteSpace=wrap;fillColor=#1ba1e2;strokeColor=#006EAF;fontColor=#ffffff;" parent="1" vertex="1">
          <mxGeometry x="480" y="450" width="90" height="50" as="geometry" />
        </mxCell>
        <mxCell id="Qdy37N5gB0tk9F52WcXk-51" value="" style="edgeStyle=orthogonalEdgeStyle;rounded=0;orthogonalLoop=1;jettySize=auto;html=1;fillColor=#1ba1e2;strokeColor=#006EAF;" parent="1" source="Qdy37N5gB0tk9F52WcXk-30" target="Qdy37N5gB0tk9F52WcXk-49" edge="1">
          <mxGeometry relative="1" as="geometry" />
        </mxCell>
        <mxCell id="Qdy37N5gB0tk9F52WcXk-30" value="" style="strokeWidth=2;html=1;shape=mxgraph.flowchart.start_2;whiteSpace=wrap;fillColor=#1ba1e2;strokeColor=#006EAF;fontColor=#ffffff;" parent="1" vertex="1">
          <mxGeometry x="770" y="465" width="20" height="20" as="geometry" />
        </mxCell>
        <mxCell id="Qdy37N5gB0tk9F52WcXk-36" value="" style="edgeStyle=orthogonalEdgeStyle;rounded=0;orthogonalLoop=1;jettySize=auto;html=1;fillColor=#1ba1e2;strokeColor=#006EAF;" parent="1" source="Qdy37N5gB0tk9F52WcXk-33" target="Qdy37N5gB0tk9F52WcXk-30" edge="1">
          <mxGeometry relative="1" as="geometry" />
        </mxCell>
        <mxCell id="Qdy37N5gB0tk9F52WcXk-33" value="" style="strokeWidth=2;html=1;shape=mxgraph.flowchart.start_2;whiteSpace=wrap;fillColor=#1ba1e2;strokeColor=#006EAF;fontColor=#ffffff;" parent="1" vertex="1">
          <mxGeometry x="770" y="275" width="20" height="20" as="geometry" />
        </mxCell>
        <mxCell id="Qdy37N5gB0tk9F52WcXk-46" value="" style="edgeStyle=orthogonalEdgeStyle;rounded=0;orthogonalLoop=1;jettySize=auto;html=1;fillColor=#1ba1e2;strokeColor=#006EAF;" parent="1" source="Qdy37N5gB0tk9F52WcXk-39" target="Qdy37N5gB0tk9F52WcXk-45" edge="1">
          <mxGeometry relative="1" as="geometry" />
        </mxCell>
        <mxCell id="Qdy37N5gB0tk9F52WcXk-53" value="" style="edgeStyle=orthogonalEdgeStyle;rounded=0;orthogonalLoop=1;jettySize=auto;html=1;fillColor=#1ba1e2;strokeColor=#006EAF;" parent="1" source="Qdy37N5gB0tk9F52WcXk-39" target="Qdy37N5gB0tk9F52WcXk-52" edge="1">
          <mxGeometry relative="1" as="geometry" />
        </mxCell>
        <mxCell id="Qdy37N5gB0tk9F52WcXk-39" value="n_gpa &amp;lt; 2.00" style="strokeWidth=2;html=1;shape=mxgraph.flowchart.decision;whiteSpace=wrap;fillColor=#1ba1e2;strokeColor=#006EAF;fontColor=#ffffff;" parent="1" vertex="1">
          <mxGeometry x="300" y="540" width="120" height="50" as="geometry" />
        </mxCell>
        <mxCell id="Qdy37N5gB0tk9F52WcXk-48" value="" style="edgeStyle=orthogonalEdgeStyle;rounded=0;orthogonalLoop=1;jettySize=auto;html=1;fillColor=#1ba1e2;strokeColor=#006EAF;" parent="1" source="Qdy37N5gB0tk9F52WcXk-45" target="Qdy37N5gB0tk9F52WcXk-47" edge="1">
          <mxGeometry relative="1" as="geometry" />
        </mxCell>
        <mxCell id="Qdy37N5gB0tk9F52WcXk-65" value="" style="edgeStyle=orthogonalEdgeStyle;rounded=0;orthogonalLoop=1;jettySize=auto;html=1;fillColor=#1ba1e2;strokeColor=#006EAF;" parent="1" source="Qdy37N5gB0tk9F52WcXk-45" target="Qdy37N5gB0tk9F52WcXk-64" edge="1">
          <mxGeometry relative="1" as="geometry" />
        </mxCell>
        <mxCell id="Qdy37N5gB0tk9F52WcXk-45" value="n_gps &amp;lt; 2.00" style="strokeWidth=2;html=1;shape=mxgraph.flowchart.decision;whiteSpace=wrap;fillColor=#1ba1e2;strokeColor=#006EAF;fontColor=#ffffff;" parent="1" vertex="1">
          <mxGeometry x="480" y="540" width="120" height="50" as="geometry" />
        </mxCell>
        <mxCell id="Qdy37N5gB0tk9F52WcXk-50" value="" style="edgeStyle=orthogonalEdgeStyle;rounded=0;orthogonalLoop=1;jettySize=auto;html=1;fillColor=#1ba1e2;strokeColor=#006EAF;" parent="1" source="Qdy37N5gB0tk9F52WcXk-47" target="Qdy37N5gB0tk9F52WcXk-49" edge="1">
          <mxGeometry relative="1" as="geometry" />
        </mxCell>
        <mxCell id="Qdy37N5gB0tk9F52WcXk-47" value="Retired" style="strokeWidth=2;html=1;shape=mxgraph.flowchart.display;whiteSpace=wrap;fillColor=#1ba1e2;strokeColor=#006EAF;fontColor=#ffffff;" parent="1" vertex="1">
          <mxGeometry x="640" y="540" width="90" height="50" as="geometry" />
        </mxCell>
        <mxCell id="Qdy37N5gB0tk9F52WcXk-57" value="" style="edgeStyle=orthogonalEdgeStyle;rounded=0;orthogonalLoop=1;jettySize=auto;html=1;fillColor=#1ba1e2;strokeColor=#006EAF;" parent="1" source="Qdy37N5gB0tk9F52WcXk-49" target="Qdy37N5gB0tk9F52WcXk-55" edge="1">
          <mxGeometry relative="1" as="geometry" />
        </mxCell>
        <mxCell id="Qdy37N5gB0tk9F52WcXk-49" value="" style="strokeWidth=2;html=1;shape=mxgraph.flowchart.start_2;whiteSpace=wrap;fillColor=#1ba1e2;strokeColor=#006EAF;fontColor=#ffffff;" parent="1" vertex="1">
          <mxGeometry x="770" y="555" width="20" height="20" as="geometry" />
        </mxCell>
        <mxCell id="Qdy37N5gB0tk9F52WcXk-69" style="edgeStyle=orthogonalEdgeStyle;rounded=0;orthogonalLoop=1;jettySize=auto;html=1;entryX=0;entryY=0.5;entryDx=0;entryDy=0;entryPerimeter=0;fillColor=#1ba1e2;strokeColor=#006EAF;" parent="1" source="Qdy37N5gB0tk9F52WcXk-52" target="Qdy37N5gB0tk9F52WcXk-68" edge="1">
          <mxGeometry relative="1" as="geometry" />
        </mxCell>
        <mxCell id="Qdy37N5gB0tk9F52WcXk-52" value="Normal" style="strokeWidth=2;html=1;shape=mxgraph.flowchart.display;whiteSpace=wrap;fillColor=#1ba1e2;strokeColor=#006EAF;fontColor=#ffffff;" parent="1" vertex="1">
          <mxGeometry x="315" y="730" width="90" height="50" as="geometry" />
        </mxCell>
        <mxCell id="Qdy37N5gB0tk9F52WcXk-75" value="" style="edgeStyle=orthogonalEdgeStyle;rounded=0;orthogonalLoop=1;jettySize=auto;html=1;fillColor=#1ba1e2;strokeColor=#006EAF;" parent="1" source="Qdy37N5gB0tk9F52WcXk-55" target="Qdy37N5gB0tk9F52WcXk-73" edge="1">
          <mxGeometry relative="1" as="geometry" />
        </mxCell>
        <mxCell id="Qdy37N5gB0tk9F52WcXk-55" value="" style="strokeWidth=2;html=1;shape=mxgraph.flowchart.start_2;whiteSpace=wrap;fillColor=#1ba1e2;strokeColor=#006EAF;fontColor=#ffffff;" parent="1" vertex="1">
          <mxGeometry x="770" y="745" width="20" height="20" as="geometry" />
        </mxCell>
        <mxCell id="Qdy37N5gB0tk9F52WcXk-62" value="" style="edgeStyle=orthogonalEdgeStyle;rounded=0;orthogonalLoop=1;jettySize=auto;html=1;fillColor=#1ba1e2;strokeColor=#006EAF;" parent="1" source="Qdy37N5gB0tk9F52WcXk-59" target="Qdy37N5gB0tk9F52WcXk-61" edge="1">
          <mxGeometry relative="1" as="geometry" />
        </mxCell>
        <mxCell id="Qdy37N5gB0tk9F52WcXk-72" value="" style="edgeStyle=orthogonalEdgeStyle;rounded=0;orthogonalLoop=1;jettySize=auto;html=1;fillColor=#1ba1e2;strokeColor=#006EAF;" parent="1" source="Qdy37N5gB0tk9F52WcXk-59" target="Qdy37N5gB0tk9F52WcXk-63" edge="1">
          <mxGeometry relative="1" as="geometry" />
        </mxCell>
        <mxCell id="Qdy37N5gB0tk9F52WcXk-59" value="n_gpa &amp;lt; 1.00" style="strokeWidth=2;html=1;shape=mxgraph.flowchart.decision;whiteSpace=wrap;fillColor=#1ba1e2;strokeColor=#006EAF;fontColor=#ffffff;" parent="1" vertex="1">
          <mxGeometry x="160" y="810" width="120" height="50" as="geometry" />
        </mxCell>
        <mxCell id="Qdy37N5gB0tk9F52WcXk-74" style="edgeStyle=orthogonalEdgeStyle;rounded=0;orthogonalLoop=1;jettySize=auto;html=1;exitX=1;exitY=0.5;exitDx=0;exitDy=0;exitPerimeter=0;entryX=0;entryY=0.5;entryDx=0;entryDy=0;entryPerimeter=0;fillColor=#1ba1e2;strokeColor=#006EAF;" parent="1" source="Qdy37N5gB0tk9F52WcXk-61" target="Qdy37N5gB0tk9F52WcXk-73" edge="1">
          <mxGeometry relative="1" as="geometry" />
        </mxCell>
        <mxCell id="Qdy37N5gB0tk9F52WcXk-61" value="Retired" style="strokeWidth=2;html=1;shape=mxgraph.flowchart.display;whiteSpace=wrap;fillColor=#1ba1e2;strokeColor=#006EAF;fontColor=#ffffff;" parent="1" vertex="1">
          <mxGeometry x="490" y="810" width="90" height="50" as="geometry" />
        </mxCell>
        <mxCell id="Qdy37N5gB0tk9F52WcXk-77" value="" style="edgeStyle=orthogonalEdgeStyle;rounded=0;orthogonalLoop=1;jettySize=auto;html=1;fillColor=#1ba1e2;strokeColor=#006EAF;" parent="1" source="Qdy37N5gB0tk9F52WcXk-63" target="Qdy37N5gB0tk9F52WcXk-76" edge="1">
          <mxGeometry relative="1" as="geometry" />
        </mxCell>
        <mxCell id="Qdy37N5gB0tk9F52WcXk-79" value="" style="edgeStyle=orthogonalEdgeStyle;rounded=0;orthogonalLoop=1;jettySize=auto;html=1;fillColor=#1ba1e2;strokeColor=#006EAF;" parent="1" source="Qdy37N5gB0tk9F52WcXk-63" target="Qdy37N5gB0tk9F52WcXk-78" edge="1">
          <mxGeometry relative="1" as="geometry" />
        </mxCell>
        <mxCell id="Qdy37N5gB0tk9F52WcXk-63" value="n_gpa &amp;lt; 2.00" style="strokeWidth=2;html=1;shape=mxgraph.flowchart.decision;whiteSpace=wrap;fillColor=#1ba1e2;strokeColor=#006EAF;fontColor=#ffffff;" parent="1" vertex="1">
          <mxGeometry x="160" y="900" width="120" height="50" as="geometry" />
        </mxCell>
        <mxCell id="Qdy37N5gB0tk9F52WcXk-71" value="" style="edgeStyle=orthogonalEdgeStyle;rounded=0;orthogonalLoop=1;jettySize=auto;html=1;fillColor=#1ba1e2;strokeColor=#006EAF;" parent="1" source="Qdy37N5gB0tk9F52WcXk-64" target="Qdy37N5gB0tk9F52WcXk-68" edge="1">
          <mxGeometry relative="1" as="geometry" />
        </mxCell>
        <mxCell id="Qdy37N5gB0tk9F52WcXk-64" value="Probation" style="strokeWidth=2;html=1;shape=mxgraph.flowchart.display;whiteSpace=wrap;fillColor=#1ba1e2;strokeColor=#006EAF;fontColor=#ffffff;" parent="1" vertex="1">
          <mxGeometry x="495" y="640" width="90" height="50" as="geometry" />
        </mxCell>
        <mxCell id="Qdy37N5gB0tk9F52WcXk-70" style="edgeStyle=orthogonalEdgeStyle;rounded=0;orthogonalLoop=1;jettySize=auto;html=1;entryX=0;entryY=0.5;entryDx=0;entryDy=0;entryPerimeter=0;fillColor=#1ba1e2;strokeColor=#006EAF;" parent="1" source="Qdy37N5gB0tk9F52WcXk-68" target="Qdy37N5gB0tk9F52WcXk-55" edge="1">
          <mxGeometry relative="1" as="geometry" />
        </mxCell>
        <mxCell id="Qdy37N5gB0tk9F52WcXk-68" value="" style="strokeWidth=2;html=1;shape=mxgraph.flowchart.start_2;whiteSpace=wrap;fillColor=#1ba1e2;strokeColor=#006EAF;fontColor=#ffffff;" parent="1" vertex="1">
          <mxGeometry x="530" y="745" width="20" height="20" as="geometry" />
        </mxCell>
        <mxCell id="Qdy37N5gB0tk9F52WcXk-87" value="" style="edgeStyle=orthogonalEdgeStyle;rounded=0;orthogonalLoop=1;jettySize=auto;html=1;fillColor=#1ba1e2;strokeColor=#006EAF;" parent="1" source="Qdy37N5gB0tk9F52WcXk-73" target="Qdy37N5gB0tk9F52WcXk-84" edge="1">
          <mxGeometry relative="1" as="geometry" />
        </mxCell>
        <mxCell id="Qdy37N5gB0tk9F52WcXk-73" value="" style="strokeWidth=2;html=1;shape=mxgraph.flowchart.start_2;whiteSpace=wrap;fillColor=#1ba1e2;strokeColor=#006EAF;fontColor=#ffffff;" parent="1" vertex="1">
          <mxGeometry x="770" y="825" width="20" height="20" as="geometry" />
        </mxCell>
        <mxCell id="Qdy37N5gB0tk9F52WcXk-81" value="" style="edgeStyle=orthogonalEdgeStyle;rounded=0;orthogonalLoop=1;jettySize=auto;html=1;fillColor=#1ba1e2;strokeColor=#006EAF;" parent="1" source="Qdy37N5gB0tk9F52WcXk-76" target="Qdy37N5gB0tk9F52WcXk-80" edge="1">
          <mxGeometry relative="1" as="geometry" />
        </mxCell>
        <mxCell id="Qdy37N5gB0tk9F52WcXk-83" value="" style="edgeStyle=orthogonalEdgeStyle;rounded=0;orthogonalLoop=1;jettySize=auto;html=1;fillColor=#1ba1e2;strokeColor=#006EAF;" parent="1" source="Qdy37N5gB0tk9F52WcXk-76" target="Qdy37N5gB0tk9F52WcXk-82" edge="1">
          <mxGeometry relative="1" as="geometry" />
        </mxCell>
        <mxCell id="Qdy37N5gB0tk9F52WcXk-76" value="n_gps &amp;lt; 2.00" style="strokeWidth=2;html=1;shape=mxgraph.flowchart.decision;whiteSpace=wrap;fillColor=#1ba1e2;strokeColor=#006EAF;fontColor=#ffffff;" parent="1" vertex="1">
          <mxGeometry x="354" y="900" width="120" height="50" as="geometry" />
        </mxCell>
        <mxCell id="Qdy37N5gB0tk9F52WcXk-95" value="" style="edgeStyle=orthogonalEdgeStyle;rounded=0;orthogonalLoop=1;jettySize=auto;html=1;fillColor=#1ba1e2;strokeColor=#006EAF;" parent="1" source="Qdy37N5gB0tk9F52WcXk-78" target="Qdy37N5gB0tk9F52WcXk-91" edge="1">
          <mxGeometry relative="1" as="geometry" />
        </mxCell>
        <mxCell id="Qdy37N5gB0tk9F52WcXk-78" value="Normal" style="strokeWidth=2;html=1;shape=mxgraph.flowchart.display;whiteSpace=wrap;fillColor=#1ba1e2;strokeColor=#006EAF;fontColor=#ffffff;" parent="1" vertex="1">
          <mxGeometry x="175" y="980" width="90" height="50" as="geometry" />
        </mxCell>
        <mxCell id="Qdy37N5gB0tk9F52WcXk-86" style="edgeStyle=orthogonalEdgeStyle;rounded=0;orthogonalLoop=1;jettySize=auto;html=1;entryX=0;entryY=0.5;entryDx=0;entryDy=0;entryPerimeter=0;fillColor=#1ba1e2;strokeColor=#006EAF;" parent="1" source="Qdy37N5gB0tk9F52WcXk-80" target="Qdy37N5gB0tk9F52WcXk-84" edge="1">
          <mxGeometry relative="1" as="geometry" />
        </mxCell>
        <mxCell id="Qdy37N5gB0tk9F52WcXk-80" value="Retired" style="strokeWidth=2;html=1;shape=mxgraph.flowchart.display;whiteSpace=wrap;fillColor=#1ba1e2;strokeColor=#006EAF;fontColor=#ffffff;" parent="1" vertex="1">
          <mxGeometry x="540" y="900" width="90" height="50" as="geometry" />
        </mxCell>
        <mxCell id="Qdy37N5gB0tk9F52WcXk-94" value="" style="edgeStyle=orthogonalEdgeStyle;rounded=0;orthogonalLoop=1;jettySize=auto;html=1;fillColor=#1ba1e2;strokeColor=#006EAF;" parent="1" source="Qdy37N5gB0tk9F52WcXk-82" target="Qdy37N5gB0tk9F52WcXk-92" edge="1">
          <mxGeometry relative="1" as="geometry" />
        </mxCell>
        <mxCell id="Qdy37N5gB0tk9F52WcXk-82" value="Probation" style="strokeWidth=2;html=1;shape=mxgraph.flowchart.display;whiteSpace=wrap;fillColor=#1ba1e2;strokeColor=#006EAF;fontColor=#ffffff;" parent="1" vertex="1">
          <mxGeometry x="369" y="980" width="91" height="50" as="geometry" />
        </mxCell>
        <mxCell id="Qdy37N5gB0tk9F52WcXk-90" value="" style="edgeStyle=orthogonalEdgeStyle;rounded=0;orthogonalLoop=1;jettySize=auto;html=1;fillColor=#1ba1e2;strokeColor=#006EAF;" parent="1" source="Qdy37N5gB0tk9F52WcXk-84" target="Qdy37N5gB0tk9F52WcXk-88" edge="1">
          <mxGeometry relative="1" as="geometry" />
        </mxCell>
        <mxCell id="Qdy37N5gB0tk9F52WcXk-84" value="" style="strokeWidth=2;html=1;shape=mxgraph.flowchart.start_2;whiteSpace=wrap;fillColor=#1ba1e2;strokeColor=#006EAF;fontColor=#ffffff;" parent="1" vertex="1">
          <mxGeometry x="770" y="915" width="20" height="20" as="geometry" />
        </mxCell>
        <mxCell id="Qdy37N5gB0tk9F52WcXk-96" style="edgeStyle=orthogonalEdgeStyle;rounded=0;orthogonalLoop=1;jettySize=auto;html=1;entryX=1;entryY=0.5;entryDx=0;entryDy=0;entryPerimeter=0;fillColor=#1ba1e2;strokeColor=#006EAF;" parent="1" source="Qdy37N5gB0tk9F52WcXk-88" target="Qdy37N5gB0tk9F52WcXk-92" edge="1">
          <mxGeometry relative="1" as="geometry" />
        </mxCell>
        <mxCell id="Qdy37N5gB0tk9F52WcXk-88" value="" style="strokeWidth=2;html=1;shape=mxgraph.flowchart.start_2;whiteSpace=wrap;fillColor=#1ba1e2;strokeColor=#006EAF;fontColor=#ffffff;" parent="1" vertex="1">
          <mxGeometry x="770" y="1060" width="20" height="20" as="geometry" />
        </mxCell>
        <mxCell id="Qdy37N5gB0tk9F52WcXk-99" value="" style="edgeStyle=orthogonalEdgeStyle;rounded=0;orthogonalLoop=1;jettySize=auto;html=1;fillColor=#1ba1e2;strokeColor=#006EAF;" parent="1" source="Qdy37N5gB0tk9F52WcXk-91" target="Qdy37N5gB0tk9F52WcXk-98" edge="1">
          <mxGeometry relative="1" as="geometry" />
        </mxCell>
        <mxCell id="Qdy37N5gB0tk9F52WcXk-91" value="" style="strokeWidth=2;html=1;shape=mxgraph.flowchart.start_2;whiteSpace=wrap;fillColor=#1ba1e2;strokeColor=#006EAF;fontColor=#ffffff;" parent="1" vertex="1">
          <mxGeometry x="210" y="1060" width="20" height="20" as="geometry" />
        </mxCell>
        <mxCell id="Qdy37N5gB0tk9F52WcXk-97" style="edgeStyle=orthogonalEdgeStyle;rounded=0;orthogonalLoop=1;jettySize=auto;html=1;fillColor=#1ba1e2;strokeColor=#006EAF;" parent="1" source="Qdy37N5gB0tk9F52WcXk-92" target="Qdy37N5gB0tk9F52WcXk-91" edge="1">
          <mxGeometry relative="1" as="geometry" />
        </mxCell>
        <mxCell id="Qdy37N5gB0tk9F52WcXk-92" value="" style="strokeWidth=2;html=1;shape=mxgraph.flowchart.start_2;whiteSpace=wrap;fillColor=#1ba1e2;strokeColor=#006EAF;fontColor=#ffffff;" parent="1" vertex="1">
          <mxGeometry x="404" y="1060" width="20" height="20" as="geometry" />
        </mxCell>
        <mxCell id="Qdy37N5gB0tk9F52WcXk-98" value="End" style="strokeWidth=2;html=1;shape=mxgraph.flowchart.terminator;whiteSpace=wrap;fillColor=#1ba1e2;strokeColor=#006EAF;fontColor=#ffffff;" parent="1" vertex="1">
          <mxGeometry x="40" y="1050" width="80" height="40" as="geometry" />
        </mxCell>
        <mxCell id="dl7yZBQFHoHbbI8nQGoI-1" value="True" style="text;html=1;strokeColor=none;fillColor=none;align=center;verticalAlign=middle;whiteSpace=wrap;rounded=0;" vertex="1" parent="1">
          <mxGeometry x="135" y="260" width="40" height="20" as="geometry" />
        </mxCell>
        <mxCell id="dl7yZBQFHoHbbI8nQGoI-2" value="False" style="text;html=1;strokeColor=none;fillColor=none;align=center;verticalAlign=middle;whiteSpace=wrap;rounded=0;" vertex="1" parent="1">
          <mxGeometry x="35" y="310" width="40" height="20" as="geometry" />
        </mxCell>
        <mxCell id="dl7yZBQFHoHbbI8nQGoI-3" value="False" style="text;html=1;strokeColor=none;fillColor=none;align=center;verticalAlign=middle;whiteSpace=wrap;rounded=0;" vertex="1" parent="1">
          <mxGeometry x="35" y="510" width="40" height="20" as="geometry" />
        </mxCell>
        <mxCell id="dl7yZBQFHoHbbI8nQGoI-4" value="True" style="text;html=1;strokeColor=none;fillColor=none;align=center;verticalAlign=middle;whiteSpace=wrap;rounded=0;" vertex="1" parent="1">
          <mxGeometry x="140" y="340" width="40" height="20" as="geometry" />
        </mxCell>
        <mxCell id="dl7yZBQFHoHbbI8nQGoI-5" value="True" style="text;html=1;strokeColor=none;fillColor=none;align=center;verticalAlign=middle;whiteSpace=wrap;rounded=0;" vertex="1" parent="1">
          <mxGeometry x="420" y="450" width="40" height="20" as="geometry" />
        </mxCell>
        <mxCell id="dl7yZBQFHoHbbI8nQGoI-6" value="True" style="text;html=1;strokeColor=none;fillColor=none;align=center;verticalAlign=middle;whiteSpace=wrap;rounded=0;" vertex="1" parent="1">
          <mxGeometry x="424" y="540" width="40" height="20" as="geometry" />
        </mxCell>
        <mxCell id="dl7yZBQFHoHbbI8nQGoI-8" value="True" style="text;html=1;strokeColor=none;fillColor=none;align=center;verticalAlign=middle;whiteSpace=wrap;rounded=0;" vertex="1" parent="1">
          <mxGeometry x="600" y="540" width="40" height="20" as="geometry" />
        </mxCell>
        <mxCell id="dl7yZBQFHoHbbI8nQGoI-9" value="True" style="text;html=1;strokeColor=none;fillColor=none;align=center;verticalAlign=middle;whiteSpace=wrap;rounded=0;" vertex="1" parent="1">
          <mxGeometry x="290" y="810" width="40" height="20" as="geometry" />
        </mxCell>
        <mxCell id="dl7yZBQFHoHbbI8nQGoI-10" value="False" style="text;html=1;strokeColor=none;fillColor=none;align=center;verticalAlign=middle;whiteSpace=wrap;rounded=0;" vertex="1" parent="1">
          <mxGeometry x="225" y="870" width="40" height="20" as="geometry" />
        </mxCell>
        <mxCell id="dl7yZBQFHoHbbI8nQGoI-11" value="False" style="text;html=1;strokeColor=none;fillColor=none;align=center;verticalAlign=middle;whiteSpace=wrap;rounded=0;" vertex="1" parent="1">
          <mxGeometry x="225" y="950" width="40" height="20" as="geometry" />
        </mxCell>
        <mxCell id="dl7yZBQFHoHbbI8nQGoI-12" value="True" style="text;html=1;strokeColor=none;fillColor=none;align=center;verticalAlign=middle;whiteSpace=wrap;rounded=0;" vertex="1" parent="1">
          <mxGeometry x="290" y="900" width="40" height="20" as="geometry" />
        </mxCell>
        <mxCell id="dl7yZBQFHoHbbI8nQGoI-13" value="True" style="text;html=1;strokeColor=none;fillColor=none;align=center;verticalAlign=middle;whiteSpace=wrap;rounded=0;" vertex="1" parent="1">
          <mxGeometry x="480" y="900" width="40" height="20" as="geometry" />
        </mxCell>
        <mxCell id="dl7yZBQFHoHbbI8nQGoI-14" value="False" style="text;html=1;strokeColor=none;fillColor=none;align=center;verticalAlign=middle;whiteSpace=wrap;rounded=0;" vertex="1" parent="1">
          <mxGeometry x="420" y="950" width="40" height="20" as="geometry" />
        </mxCell>
        <mxCell id="dl7yZBQFHoHbbI8nQGoI-15" value="False" style="text;html=1;strokeColor=none;fillColor=none;align=center;verticalAlign=middle;whiteSpace=wrap;rounded=0;" vertex="1" parent="1">
          <mxGeometry x="550" y="600" width="40" height="20" as="geometry" />
        </mxCell>
      </root>
    </mxGraphModel>
  </diagram>
  <diagram id="SpiMP1XrNbbB9bkPfUax" name="Page-2">
    <mxGraphModel dx="540" dy="484" grid="1" gridSize="10" guides="1" tooltips="1" connect="1" arrows="1" fold="1" page="1" pageScale="1" pageWidth="827" pageHeight="1169" math="0" shadow="0">
      <root>
        <mxCell id="MDnNEQiStWf7MFxtLacn-0" />
        <mxCell id="MDnNEQiStWf7MFxtLacn-1" parent="MDnNEQiStWf7MFxtLacn-0" />
        <mxCell id="URVUpKUmX9Gao0o6EtEd-2" value="" style="edgeStyle=orthogonalEdgeStyle;rounded=0;orthogonalLoop=1;jettySize=auto;html=1;fillColor=#1ba1e2;strokeColor=#006EAF;" edge="1" parent="MDnNEQiStWf7MFxtLacn-1" source="URVUpKUmX9Gao0o6EtEd-0" target="URVUpKUmX9Gao0o6EtEd-1">
          <mxGeometry relative="1" as="geometry" />
        </mxCell>
        <mxCell id="URVUpKUmX9Gao0o6EtEd-0" value="Start" style="strokeWidth=2;html=1;shape=mxgraph.flowchart.terminator;whiteSpace=wrap;fillColor=#1ba1e2;strokeColor=#006EAF;fontColor=#ffffff;" vertex="1" parent="MDnNEQiStWf7MFxtLacn-1">
          <mxGeometry x="50" y="20" width="80" height="40" as="geometry" />
        </mxCell>
        <mxCell id="URVUpKUmX9Gao0o6EtEd-5" value="" style="edgeStyle=orthogonalEdgeStyle;rounded=0;orthogonalLoop=1;jettySize=auto;html=1;" edge="1" parent="MDnNEQiStWf7MFxtLacn-1" source="URVUpKUmX9Gao0o6EtEd-1" target="URVUpKUmX9Gao0o6EtEd-3">
          <mxGeometry relative="1" as="geometry" />
        </mxCell>
        <mxCell id="URVUpKUmX9Gao0o6EtEd-1" value="no1, no2,&lt;br&gt;opr, res" style="rounded=1;whiteSpace=wrap;html=1;absoluteArcSize=1;arcSize=14;strokeWidth=2;fillColor=#1ba1e2;strokeColor=#006EAF;fontColor=#ffffff;" vertex="1" parent="MDnNEQiStWf7MFxtLacn-1">
          <mxGeometry x="50" y="100" width="80" height="40" as="geometry" />
        </mxCell>
        <mxCell id="URVUpKUmX9Gao0o6EtEd-6" value="" style="edgeStyle=orthogonalEdgeStyle;rounded=0;orthogonalLoop=1;jettySize=auto;html=1;" edge="1" parent="MDnNEQiStWf7MFxtLacn-1" source="URVUpKUmX9Gao0o6EtEd-3" target="URVUpKUmX9Gao0o6EtEd-4">
          <mxGeometry relative="1" as="geometry" />
        </mxCell>
        <mxCell id="URVUpKUmX9Gao0o6EtEd-3" value="no1" style="shape=parallelogram;html=1;strokeWidth=2;perimeter=parallelogramPerimeter;whiteSpace=wrap;rounded=1;arcSize=12;size=0.23;" vertex="1" parent="MDnNEQiStWf7MFxtLacn-1">
          <mxGeometry x="50" y="180" width="80" height="40" as="geometry" />
        </mxCell>
        <mxCell id="URVUpKUmX9Gao0o6EtEd-9" value="" style="edgeStyle=orthogonalEdgeStyle;rounded=0;orthogonalLoop=1;jettySize=auto;html=1;" edge="1" parent="MDnNEQiStWf7MFxtLacn-1" source="URVUpKUmX9Gao0o6EtEd-4" target="URVUpKUmX9Gao0o6EtEd-8">
          <mxGeometry relative="1" as="geometry" />
        </mxCell>
        <mxCell id="URVUpKUmX9Gao0o6EtEd-4" value="no2" style="shape=parallelogram;html=1;strokeWidth=2;perimeter=parallelogramPerimeter;whiteSpace=wrap;rounded=1;arcSize=12;size=0.23;" vertex="1" parent="MDnNEQiStWf7MFxtLacn-1">
          <mxGeometry x="50" y="260" width="80" height="40" as="geometry" />
        </mxCell>
        <mxCell id="URVUpKUmX9Gao0o6EtEd-11" value="" style="edgeStyle=orthogonalEdgeStyle;rounded=0;orthogonalLoop=1;jettySize=auto;html=1;" edge="1" parent="MDnNEQiStWf7MFxtLacn-1" source="URVUpKUmX9Gao0o6EtEd-8" target="URVUpKUmX9Gao0o6EtEd-10">
          <mxGeometry relative="1" as="geometry" />
        </mxCell>
        <mxCell id="URVUpKUmX9Gao0o6EtEd-8" value="Calculator Menu :&lt;br&gt;1. + , 2. - , 3. * , 4. / , 5. %" style="strokeWidth=2;html=1;shape=mxgraph.flowchart.display;whiteSpace=wrap;direction=east;" vertex="1" parent="MDnNEQiStWf7MFxtLacn-1">
          <mxGeometry x="10" y="350" width="160" height="80" as="geometry" />
        </mxCell>
        <mxCell id="fwNOYM0npNu2KT9dT_o9-0" value="" style="edgeStyle=orthogonalEdgeStyle;rounded=0;orthogonalLoop=1;jettySize=auto;html=1;" edge="1" parent="MDnNEQiStWf7MFxtLacn-1" source="URVUpKUmX9Gao0o6EtEd-10" target="URVUpKUmX9Gao0o6EtEd-12">
          <mxGeometry relative="1" as="geometry" />
        </mxCell>
        <mxCell id="URVUpKUmX9Gao0o6EtEd-10" value="opr" style="shape=parallelogram;html=1;strokeWidth=2;perimeter=parallelogramPerimeter;whiteSpace=wrap;rounded=1;arcSize=12;size=0.23;" vertex="1" parent="MDnNEQiStWf7MFxtLacn-1">
          <mxGeometry x="50" y="480" width="80" height="40" as="geometry" />
        </mxCell>
        <mxCell id="URVUpKUmX9Gao0o6EtEd-12" value="opr == 1" style="strokeWidth=2;html=1;shape=mxgraph.flowchart.decision;whiteSpace=wrap;" vertex="1" parent="MDnNEQiStWf7MFxtLacn-1">
          <mxGeometry x="30" y="560" width="120" height="60" as="geometry" />
        </mxCell>
      </root>
    </mxGraphModel>
  </diagram>
</mxfile>
